<mxfile host="app.diagrams.net" modified="2024-02-06T16:56:54.396Z" agent="Mozilla/5.0 (X11; Linux x86_64) AppleWebKit/537.36 (KHTML, like Gecko) Chrome/121.0.0.0 Safari/537.36" version="23.1.1" etag="s9LQCW011BBzrpCy1tuX" type="github">
  <diagram name="Pagina-1" id="NhZOOo0pM4bpHYa8Yp__">
    <mxGraphModel>
      <root>
        <mxCell id="0" />
        <mxCell id="1" parent="0" />
      </root>
    </mxGraphModel>
  </diagram>
</mxfile>
